<?xml version="1.0" encoding="UTF-8"?>
<svg version="1.1" xmlns="http://www.w3.org/2000/svg" width="303" height="303">
<path d="M0 0 C2.23341198 0.00315111 4.46548162 -0.02037131 6.69873047 -0.0456543 C44.61420836 -0.21382506 81.1265814 15.89542687 107.99951172 42.31567383 C109.67026167 43.97824719 111.33658895 45.64527165 112.99951172 47.31567383 C113.54696045 47.83798584 114.09440918 48.36029785 114.65844727 48.8984375 C119.00634819 53.09832477 122.57390899 57.52992056 125.99951172 62.50317383 C126.51932617 63.2536499 127.03914063 64.00412598 127.57470703 64.77734375 C137.81797686 79.69973669 144.95027851 95.33157633 149.87451172 112.75317383 C150.0654541 113.42493652 150.25639648 114.09669922 150.453125 114.78881836 C153.49508622 126.21478875 154.34970027 137.55303462 154.31518555 149.31616211 C154.31203443 151.54957409 154.33555686 153.78164373 154.36083984 156.01489258 C154.52901061 193.93037046 138.41975868 230.44274351 111.99951172 257.31567383 C110.33693836 258.98642378 108.6699139 260.65275106 106.99951172 262.31567383 C106.47719971 262.86312256 105.9548877 263.41057129 105.41674805 263.97460938 C101.21686078 268.3225103 96.78526499 271.89007109 91.81201172 275.31567383 C91.06153564 275.83548828 90.31105957 276.35530273 89.5378418 276.89086914 C74.61544886 287.13413897 58.98360922 294.26644062 41.56201172 299.19067383 C40.89024902 299.38161621 40.21848633 299.57255859 39.52636719 299.76928711 C28.10039679 302.81124833 16.76215093 303.66586238 4.99902344 303.63134766 C2.76561146 303.62819654 0.53354181 303.65171896 -1.69970703 303.67700195 C-39.61518492 303.84517271 -76.12755796 287.73592079 -103.00048828 261.31567383 C-104.67123823 259.65310047 -106.33756552 257.98607601 -108.00048828 256.31567383 C-108.82166138 255.53220581 -108.82166138 255.53220581 -109.65942383 254.73291016 C-114.00732475 250.53302288 -117.57488555 246.1014271 -121.00048828 241.12817383 C-121.52030273 240.37769775 -122.04011719 239.62722168 -122.57568359 238.85400391 C-132.81895343 223.93161097 -139.95125507 208.29977133 -144.87548828 190.87817383 C-145.06643066 190.20641113 -145.25737305 189.53464844 -145.45410156 188.8425293 C-148.49606279 177.4165589 -149.35067683 166.07831304 -149.31616211 154.31518555 C-149.313011 152.08177357 -149.33653342 149.84970392 -149.36181641 147.61645508 C-149.52998717 109.70097719 -133.42073524 73.18860414 -107.00048828 46.31567383 C-105.33791492 44.64492388 -103.67089046 42.97859659 -102.00048828 41.31567383 C-101.47817627 40.7682251 -100.95586426 40.22077637 -100.41772461 39.65673828 C-96.21783734 35.30883736 -91.78624155 31.74127656 -86.81298828 28.31567383 C-86.06251221 27.79585937 -85.31203613 27.27604492 -84.53881836 26.74047852 C-69.61642542 16.49720868 -53.98458578 9.36490704 -36.56298828 4.44067383 C-35.89122559 4.24973145 -35.21946289 4.05878906 -34.52734375 3.86206055 C-23.10137336 0.82009932 -11.76312749 -0.03451472 0 0 Z " fill="#32CF94" transform="translate(149.00048828125,-0.315673828125)"/>
<path d="M0 0 C2.23341198 0.00315111 4.46548162 -0.02037131 6.69873047 -0.0456543 C44.61420836 -0.21382506 81.1265814 15.89542687 107.99951172 42.31567383 C109.67026167 43.97824719 111.33658895 45.64527165 112.99951172 47.31567383 C113.54696045 47.83798584 114.09440918 48.36029785 114.65844727 48.8984375 C119.00634819 53.09832477 122.57390899 57.52992056 125.99951172 62.50317383 C126.51932617 63.2536499 127.03914063 64.00412598 127.57470703 64.77734375 C137.81797686 79.69973669 144.95027851 95.33157633 149.87451172 112.75317383 C150.0654541 113.42493652 150.25639648 114.09669922 150.453125 114.78881836 C153.49508622 126.21478875 154.34970027 137.55303462 154.31518555 149.31616211 C154.31203443 151.54957409 154.33555686 153.78164373 154.36083984 156.01489258 C154.52901061 193.93037046 138.41975868 230.44274351 111.99951172 257.31567383 C110.33693836 258.98642378 108.6699139 260.65275106 106.99951172 262.31567383 C106.47719971 262.86312256 105.9548877 263.41057129 105.41674805 263.97460938 C101.21686078 268.3225103 96.78526499 271.89007109 91.81201172 275.31567383 C91.06153564 275.83548828 90.31105957 276.35530273 89.5378418 276.89086914 C74.61544886 287.13413897 58.98360922 294.26644062 41.56201172 299.19067383 C40.89024902 299.38161621 40.21848633 299.57255859 39.52636719 299.76928711 C28.10039679 302.81124833 16.76215093 303.66586238 4.99902344 303.63134766 C2.76561146 303.62819654 0.53354181 303.65171896 -1.69970703 303.67700195 C-39.61518492 303.84517271 -76.12755796 287.73592079 -103.00048828 261.31567383 C-104.67123823 259.65310047 -106.33756552 257.98607601 -108.00048828 256.31567383 C-108.82166138 255.53220581 -108.82166138 255.53220581 -109.65942383 254.73291016 C-114.00732475 250.53302288 -117.57488555 246.1014271 -121.00048828 241.12817383 C-121.52030273 240.37769775 -122.04011719 239.62722168 -122.57568359 238.85400391 C-132.81895343 223.93161097 -139.95125507 208.29977133 -144.87548828 190.87817383 C-145.06643066 190.20641113 -145.25737305 189.53464844 -145.45410156 188.8425293 C-148.49606279 177.4165589 -149.35067683 166.07831304 -149.31616211 154.31518555 C-149.313011 152.08177357 -149.33653342 149.84970392 -149.36181641 147.61645508 C-149.52998717 109.70097719 -133.42073524 73.18860414 -107.00048828 46.31567383 C-105.33791492 44.64492388 -103.67089046 42.97859659 -102.00048828 41.31567383 C-101.47817627 40.7682251 -100.95586426 40.22077637 -100.41772461 39.65673828 C-96.21783734 35.30883736 -91.78624155 31.74127656 -86.81298828 28.31567383 C-86.06251221 27.79585937 -85.31203613 27.27604492 -84.53881836 26.74047852 C-69.61642542 16.49720868 -53.98458578 9.36490704 -36.56298828 4.44067383 C-35.89122559 4.24973145 -35.21946289 4.05878906 -34.52734375 3.86206055 C-23.10137336 0.82009932 -11.76312749 -0.03451472 0 0 Z M-28.00048828 12.31567383 C-29.31114936 12.59941504 -30.62236124 12.88062266 -31.93408203 13.15942383 C-65.13691863 20.48960413 -96.34562094 42.37062509 -115.28955078 70.60864258 C-121.91827465 81.096555 -127.36508318 91.80932712 -132.00048828 103.31567383 C-132.58636719 104.73686523 -132.58636719 104.73686523 -133.18408203 106.18676758 C-141.96376341 129.72451259 -143.16474585 158.06003707 -137.00048828 182.31567383 C-136.79552734 183.3030957 -136.59056641 184.29051758 -136.37939453 185.30786133 C-130.65297779 211.55690202 -116.4073202 234.19094675 -98.00048828 253.31567383 C-97.43201172 253.94731445 -96.86353516 254.57895508 -96.27783203 255.22973633 C-79.00747233 273.86935728 -53.21239391 285.19952594 -29.00048828 291.31567383 C-27.76298828 291.63665039 -26.52548828 291.95762695 -25.25048828 292.28833008 C-12.92216809 295.04936012 -0.56394074 294.67373446 11.99951172 294.31567383 C13.29630859 294.28473633 14.59310547 294.25379883 15.92919922 294.22192383 C24.56617022 293.79115221 32.73392754 291.70894132 40.99951172 289.31567383 C42.06927246 289.01234131 42.06927246 289.01234131 43.16064453 288.70288086 C80.31887826 277.95962871 109.58324012 252.6032139 128.5456543 219.27075195 C144.52405299 190.15076118 149.87570382 153.63522072 141.99951172 121.31567383 C141.71558862 119.99332828 141.43438738 118.67039571 141.15576172 117.34692383 C138.98005659 107.42335111 135.44485666 98.43292367 130.99951172 89.31567383 C130.17966797 87.63151367 130.17966797 87.63151367 129.34326172 85.91333008 C122.23606192 72.08446255 112.90691003 60.31801434 101.99951172 49.31567383 C101.15001953 48.45329102 100.30052734 47.5909082 99.42529297 46.70239258 C70.83647943 19.25187789 32.72271902 8.7040234 -6.04345703 9.09692383 C-13.64382456 9.28900388 -20.61844634 10.51479714 -28.00048828 12.31567383 Z " fill="#515471" transform="translate(149.00048828125,-0.315673828125)"/>
<path d="M0 0 C0.82450653 -0.01921509 1.64901306 -0.03843018 2.49850464 -0.05822754 C3.38603424 -0.06672729 4.27356384 -0.07522705 5.18798828 -0.08398438 C6.10411896 -0.09538452 7.02024963 -0.10678467 7.96414185 -0.11853027 C9.90247992 -0.13742057 11.84088208 -0.15049443 13.77929688 -0.15820312 C16.74088828 -0.17762021 19.69970472 -0.23966227 22.66064453 -0.30273438 C24.54474264 -0.31579488 26.42886059 -0.32629566 28.31298828 -0.33398438 C29.19646942 -0.35867798 30.07995056 -0.38337158 30.99020386 -0.40881348 C35.63188976 -0.37527959 37.27491144 -0.24598372 40.78808594 3.03540039 C44.41799344 8.7298125 44.41799344 8.7298125 45.97705078 11.56835938 C46.52594971 12.55916504 47.07484863 13.5499707 47.64038086 14.57080078 C48.50312622 16.14933838 48.50312622 16.14933838 49.38330078 17.75976562 C50.62637267 20.00609057 51.86987207 22.25217899 53.11376953 24.49804688 C53.7407373 25.6345166 54.36770508 26.77098633 55.01367188 27.94189453 C61.5340102 39.7309523 68.13013818 51.48753822 75.00830078 63.07226562 C75.53967651 63.97549561 75.53967651 63.97549561 76.08178711 64.89697266 C77.78235831 67.72834248 79.53490467 70.01762844 81.88330078 72.32226562 C81.88330078 72.98226562 81.88330078 73.64226562 81.88330078 74.32226562 C85.73105447 76.13297324 88.64459523 77.00045851 92.88330078 76.32226562 C99.56929377 71.56041572 103.18181721 65.62644644 107.32080078 58.63476562 C108.00239258 57.50514404 108.68398437 56.37552246 109.38623047 55.21166992 C111.19679686 52.20856776 112.99104801 49.19606749 114.7802124 46.18017578 C115.88949039 44.31184058 117.0022831 42.44564426 118.11621094 40.58007812 C124.11218436 30.53636943 130.07961691 20.4787124 135.88330078 10.32226562 C129.28330078 10.32226562 122.68330078 10.32226562 115.88330078 10.32226562 C115.22330078 11.97226563 114.56330078 13.62226562 113.88330078 15.32226562 C112.61100267 17.55565099 111.31672197 19.74897787 109.96923828 21.93554688 C109.59473541 22.5499614 109.22023254 23.16437592 108.8343811 23.79740906 C107.64591177 25.74539441 106.45220066 27.69010491 105.25830078 29.63476562 C104.44805575 30.96072418 103.63815621 32.28689392 102.82861328 33.61328125 C100.85083254 36.85206713 98.86834664 40.08792789 96.88330078 43.32226562 C96.10599609 42.84144531 95.32869141 42.360625 94.52783203 41.86523438 C92.2094024 40.51253171 90.48897971 39.80479876 87.88330078 39.32226562 C92.64614543 29.53721351 98.46562061 20.27030261 104.25830078 11.07226562 C104.78214355 10.23816162 105.30598633 9.40405762 105.84570312 8.54467773 C106.34021973 7.76487549 106.83473633 6.98507324 107.34423828 6.18164062 C107.78558105 5.48522461 108.22692383 4.78880859 108.68164062 4.07128906 C109.88330078 2.32226563 109.88330078 2.32226563 111.88330078 0.32226562 C114.58465401 0.12252829 117.18127289 0.0424499 119.88330078 0.05664062 C120.67478516 0.05472717 121.46626953 0.05281372 122.28173828 0.05084229 C123.95622068 0.04948045 125.63071363 0.05317681 127.30517578 0.06152344 C129.87312459 0.07222322 132.44037381 0.06162837 135.00830078 0.04882812 C136.63330233 0.05014972 138.25830344 0.05271211 139.88330078 0.05664062 C141.03958984 0.05056793 141.03958984 0.05056793 142.21923828 0.04437256 C147.65337946 0.0923443 147.65337946 0.0923443 149.88330078 2.32226562 C150.43509658 7.17448393 149.40205087 9.83210505 146.83251953 13.90820312 C146.16285156 14.9884375 145.49318359 16.06867188 144.80322266 17.18164062 C144.05919502 18.35358737 143.31505116 19.52546033 142.57080078 20.69726562 C141.41025089 22.55594127 140.25457695 24.4175858 139.09939575 26.27960205 C138.28855354 27.58644177 137.47624863 28.89237495 136.66256714 30.19744873 C133.64858805 35.04350048 130.72456128 39.93709573 127.84033203 44.86132812 C127.42498703 45.56905365 127.00964203 46.27677917 126.58171082 47.00595093 C124.95451265 49.78050108 123.32821101 52.55547851 121.71395874 55.33758545 C106.86061079 80.9137522 106.86061079 80.9137522 96.50830078 86.63476562 C90.38725861 88.23789572 86.40309398 87.94881216 80.88330078 84.94726562 C71.6688906 78.77576235 66.40804743 69.26792081 61.25830078 59.69726562 C60.0492603 57.49440047 58.83826739 55.29260596 57.62548828 53.09179688 C57.01157227 51.97498535 56.39765625 50.85817383 55.76513672 49.70751953 C52.71539049 44.22129985 49.55509454 38.80108243 46.38330078 33.38476562 C45.53904541 31.94012939 45.53904541 31.94012939 44.67773438 30.46630859 C42.52388458 26.78967737 40.36936581 23.11649043 38.14501953 19.48193359 C37.59458984 18.5823291 37.04416016 17.68272461 36.47705078 16.75585938 C35.7297168 15.54820923 35.7297168 15.54820923 34.96728516 14.31616211 C33.88330078 12.32226562 33.88330078 12.32226562 33.88330078 10.32226562 C24.97330078 10.32226562 16.06330078 10.32226562 6.88330078 10.32226562 C13.03109178 21.50006744 19.32837567 32.56823807 25.77832031 43.57421875 C29.03080158 49.12969368 32.25039869 54.69851666 35.38330078 60.32226562 C44.82960845 77.80619301 44.82960845 77.80619301 55.45469666 94.54821777 C57.2286474 97.99285592 57.24507867 100.35809683 57.22387695 104.22387695 C57.22453407 105.23446671 57.22453407 105.23446671 57.22520447 106.26547241 C57.22312469 108.47871505 57.19983344 110.69118758 57.17626953 112.90429688 C57.17067066 114.44414354 57.16640193 115.98399556 57.16340637 117.52384949 C57.15198046 121.56650684 57.12253301 125.60883818 57.08929443 129.65136719 C57.05854474 133.7805541 57.04489059 137.90979396 57.02978516 142.0390625 C56.99766078 150.13362944 56.94491159 158.22786935 56.88330078 166.32226562 C65.79330078 166.32226562 74.70330078 166.32226562 83.88330078 166.32226562 C83.88330078 150.48226562 83.88330078 134.64226562 83.88330078 118.32226562 C86.85330078 118.65226562 89.82330078 118.98226562 92.88330078 119.32226562 C92.95924061 126.81528242 93.0118541 134.30820033 93.0480957 141.80151367 C93.06320083 144.3516816 93.08368612 146.90182349 93.10961914 149.4519043 C93.14592582 153.11318381 93.16300993 156.77412047 93.17626953 160.43554688 C93.19175339 161.57937332 93.20723724 162.72319977 93.22319031 163.90168762 C93.2234169 164.96256088 93.22364349 166.02343414 93.22387695 167.11645508 C93.23386971 168.51877129 93.23386971 168.51877129 93.24406433 169.94941711 C92.88330078 172.32226562 92.88330078 172.32226562 91.61080933 174.12435913 C88.47783608 176.29685721 84.59340277 175.72530021 80.91064453 175.68554688 C80.03179092 175.68604538 79.15293732 175.68654388 78.24745178 175.6870575 C76.39061216 175.6847178 74.53376931 175.67499542 72.67700195 175.65844727 C69.82816361 175.63482667 66.9802592 175.63789043 64.13134766 175.64453125 C62.32860768 175.63895547 60.52587166 175.63184621 58.72314453 175.62304688 C57.86792709 175.62395828 57.01270966 175.62486969 56.13157654 175.62580872 C50.11433218 175.55329703 50.11433218 175.55329703 47.88330078 173.32226562 C47.69230652 170.50312805 47.69230652 170.50312805 47.77075195 166.85083008 C47.7932335 165.46991748 47.81553834 164.089002 47.83769226 162.70808411 C47.85297155 161.97271738 47.86825085 161.23735065 47.88399315 160.47970009 C47.95649444 156.5453742 47.96625111 152.61065988 47.98681641 148.67578125 C48.01614405 143.68572871 48.06244101 138.69803253 48.18139648 133.70922852 C48.64739703 113.21233952 48.05790177 97.75418761 35.47061157 80.5369873 C33.08709882 77.21135164 31.09201864 73.68720026 29.07080078 70.13476562 C28.26824057 68.77413361 27.46375405 67.4146347 26.65673828 66.05664062 C22.41223511 58.84636604 18.2874332 51.56610024 14.15356445 44.29199219 C10.65403688 38.13928468 7.12214273 32.00930598 3.52001953 25.91601562 C2.4765814 24.1419323 1.43390885 22.36740122 0.39144897 20.59274292 C-0.59667757 18.91868576 -1.59620285 17.25137354 -2.59594727 15.58422852 C-3.19060791 14.57094482 -3.78526855 13.55766113 -4.39794922 12.51367188 C-4.92453125 11.62881104 -5.45111328 10.7439502 -5.99365234 9.83227539 C-7.23938722 7.04805795 -7.58469001 5.33447685 -7.11669922 2.32226562 C-4.08110831 0.29853835 -3.4208512 0.06448962 0 0 Z " fill="#515571" transform="translate(79.11669921875,75.677734375)"/>
<path d="M0 0 C2 1.6875 2 1.6875 3 4 C2.8624874 6.81900839 2.35530428 8.45769347 0.8125 10.8125 C-1.91793933 12.60140853 -3.81738719 12.46413104 -7 12 C-9.35210784 9.88310295 -9.91810953 8.55958485 -10.375 5.4375 C-10 3 -10 3 -8.9375 1.1875 C-5.87386726 -0.69021039 -3.49835955 -0.43729494 0 0 Z " fill="#505872" transform="translate(170,120)"/>
<path d="M0 0 C1.875 1.125 1.875 1.125 3 3 C3.39365568 6.14924548 3.52854531 8.11909116 1.875 10.875 C-0.88090884 12.52854531 -2.85075452 12.39365568 -6 12 C-7.875 10.875 -7.875 10.875 -9 9 C-9.39365568 5.85075452 -9.52854531 3.88090884 -7.875 1.125 C-5.11909116 -0.52854531 -3.14924548 -0.39365568 0 0 Z " fill="#515571" transform="translate(171,178)"/>
</svg>
